<svg width="100" height="100" viewBox="0 0 100 100" fill="none" xmlns="http://www.w3.org/2000/svg">
<path fill-rule="evenodd" clip-rule="evenodd" d="M83.3334 29.1667H66.6667V20.8333L58.3333 12.5H41.6667L33.3333 20.8333V29.1667H16.6667C12.0833 29.1667 8.33334 32.9167 8.33334 37.5V58.3333C8.33334 61.4583 10 64.0833 12.5 65.5417V79.1667C12.5 83.7917 16.2083 87.5 20.8333 87.5H79.1667C83.7917 87.5 87.5 83.7917 87.5 79.1667V65.5C89.9584 64.0417 91.6667 61.375 91.6667 58.3333V37.5C91.6667 32.9167 87.9167 29.1667 83.3334 29.1667ZM41.6667 20.8333H58.3333V29.1667H41.6667V20.8333ZM83.3333 37.5H16.6667V58.3333H37.5V45.8333H62.5V58.3333H83.3333V37.5ZM54.1667 62.5H45.8333V54.1667H54.1667V62.5ZM20.8333 79.1667H79.1667V66.6667H62.5V70.8333H37.5V66.6667H20.8333V79.1667Z" fill="#193094"/>
</svg>
