<svg width="48" height="48" viewBox="0 0 48 48" fill="none" xmlns="http://www.w3.org/2000/svg">
<path fill-rule="evenodd" clip-rule="evenodd" d="M4 12C4 9.87827 4.84285 7.84344 6.34315 6.34315C7.84344 4.84285 9.87827 4 12 4H36C38.1217 4 40.1566 4.84285 41.6569 6.34315C43.1571 7.84344 44 9.87827 44 12V36C44 38.1217 43.1571 40.1566 41.6569 41.6569C40.1566 43.1571 38.1217 44 36 44H12C9.87827 44 7.84344 43.1571 6.34315 41.6569C4.84285 40.1566 4 38.1217 4 36V12ZM12 8C10.9391 8 9.92172 8.42143 9.17157 9.17157C8.42143 9.92172 8 10.9391 8 12V36C8 37.0609 8.42143 38.0783 9.17157 38.8284C9.92172 39.5786 10.9391 40 12 40H24V26H22C21.4696 26 20.9609 25.7893 20.5858 25.4142C20.2107 25.0391 20 24.5304 20 24C20 23.4696 20.2107 22.9609 20.5858 22.5858C20.9609 22.2107 21.4696 22 22 22H24V19C24 17.1435 24.7375 15.363 26.0503 14.0503C27.363 12.7375 29.1435 12 31 12H32.2C32.7304 12 33.2391 12.2107 33.6142 12.5858C33.9893 12.9609 34.2 13.4696 34.2 14C34.2 14.5304 33.9893 15.0391 33.6142 15.4142C33.2391 15.7893 32.7304 16 32.2 16H31C30.606 16 30.2159 16.0776 29.8519 16.2284C29.488 16.3791 29.1573 16.6001 28.8787 16.8787C28.6001 17.1573 28.3791 17.488 28.2284 17.8519C28.0776 18.2159 28 18.606 28 19V22H32.2C32.7304 22 33.2391 22.2107 33.6142 22.5858C33.9893 22.9609 34.2 23.4696 34.2 24C34.2 24.5304 33.9893 25.0391 33.6142 25.4142C33.2391 25.7893 32.7304 26 32.2 26H28V40H36C37.0609 40 38.0783 39.5786 38.8284 38.8284C39.5786 38.0783 40 37.0609 40 36V12C40 10.9391 39.5786 9.92172 38.8284 9.17157C38.0783 8.42143 37.0609 8 36 8H12Z" fill="white"/>
</svg>
