<svg width="48" height="48" viewBox="0 0 48 48" fill="none" xmlns="http://www.w3.org/2000/svg">
<path fill-rule="evenodd" clip-rule="evenodd" d="M4 12C4 9.87827 4.84285 7.84344 6.34315 6.34315C7.84344 4.84285 9.87827 4 12 4H36C38.1217 4 40.1566 4.84285 41.6569 6.34315C43.1571 7.84344 44 9.87827 44 12V36C44 38.1217 43.1571 40.1566 41.6569 41.6569C40.1566 43.1571 38.1217 44 36 44H12C9.87827 44 7.84344 43.1571 6.34315 41.6569C4.84285 40.1566 4 38.1217 4 36V12ZM12 8C10.9391 8 9.92172 8.42143 9.17157 9.17157C8.42143 9.92172 8 10.9391 8 12V36C8 37.0609 8.42143 38.0783 9.17157 38.8284C9.92172 39.5786 10.9391 40 12 40H36C37.0609 40 38.0783 39.5786 38.8284 38.8284C39.5786 38.0783 40 37.0609 40 36V12C40 10.9391 39.5786 9.92172 38.8284 9.17157C38.0783 8.42143 37.0609 8 36 8H12ZM24 18C22.4087 18 20.8826 18.6321 19.7574 19.7574C18.6321 20.8826 18 22.4087 18 24C18 25.5913 18.6321 27.1174 19.7574 28.2426C20.8826 29.3679 22.4087 30 24 30C25.5913 30 27.1174 29.3679 28.2426 28.2426C29.3679 27.1174 30 25.5913 30 24C30 22.4087 29.3679 20.8826 28.2426 19.7574C27.1174 18.6321 25.5913 18 24 18ZM14 24C14 21.3478 15.0536 18.8043 16.9289 16.9289C18.8043 15.0536 21.3478 14 24 14C26.6522 14 29.1957 15.0536 31.0711 16.9289C32.9464 18.8043 34 21.3478 34 24C34 26.6522 32.9464 29.1957 31.0711 31.0711C29.1957 32.9464 26.6522 34 24 34C21.3478 34 18.8043 32.9464 16.9289 31.0711C15.0536 29.1957 14 26.6522 14 24ZM35 16C35.7956 16 36.5587 15.6839 37.1213 15.1213C37.6839 14.5587 38 13.7956 38 13C38 12.2044 37.6839 11.4413 37.1213 10.8787C36.5587 10.3161 35.7956 10 35 10C34.2044 10 33.4413 10.3161 32.8787 10.8787C32.3161 11.4413 32 12.2044 32 13C32 13.7956 32.3161 14.5587 32.8787 15.1213C33.4413 15.6839 34.2044 16 35 16Z" fill="white"/>
</svg>
