<svg width="48" height="48" viewBox="0 0 48 48" fill="none" xmlns="http://www.w3.org/2000/svg">
<path fill-rule="evenodd" clip-rule="evenodd" d="M12 4C9.87827 4 7.84344 4.84285 6.34315 6.34315C4.84285 7.84344 4 9.87827 4 12V36C4 38.1217 4.84285 40.1566 6.34315 41.6569C7.84344 43.1571 9.87827 44 12 44H36C38.1217 44 40.1566 43.1571 41.6569 41.6569C43.1571 40.1566 44 38.1217 44 36V12C44 9.87827 43.1571 7.84344 41.6569 6.34315C40.1566 4.84285 38.1217 4 36 4H12ZM8 12C8 10.9391 8.42143 9.92172 9.17157 9.17157C9.92172 8.42143 10.9391 8 12 8H36C37.0609 8 38.0783 8.42143 38.8284 9.17157C39.5786 9.92172 40 10.9391 40 12V36C40 37.0609 39.5786 38.0783 38.8284 38.8284C38.0783 39.5786 37.0609 40 36 40H12C10.9391 40 9.92172 39.5786 9.17157 38.8284C8.42143 38.0783 8 37.0609 8 36V12ZM18 22C18 21.4696 17.7893 20.9609 17.4142 20.5858C17.0391 20.2107 16.5304 20 16 20C15.4696 20 14.9609 20.2107 14.5858 20.5858C14.2107 20.9609 14 21.4696 14 22V34C14 34.5304 14.2107 35.0391 14.5858 35.4142C14.9609 35.7893 15.4696 36 16 36C16.5304 36 17.0391 35.7893 17.4142 35.4142C17.7893 35.0391 18 34.5304 18 34V22ZM19 15C19 15.7956 18.6839 16.5587 18.1213 17.1213C17.5587 17.6839 16.7956 18 16 18C15.2044 18 14.4413 17.6839 13.8787 17.1213C13.3161 16.5587 13 15.7956 13 15C13 14.2044 13.3161 13.4413 13.8787 12.8787C14.4413 12.3161 15.2044 12 16 12C16.7956 12 17.5587 12.3161 18.1213 12.8787C18.6839 13.4413 19 14.2044 19 15ZM24 20C24.68 20 25.28 20.34 25.64 20.856C26.6708 20.2942 27.826 19.9999 29 20C33.32 20 36 23.852 36 27.142V34C36 34.5304 35.7893 35.0391 35.4142 35.4142C35.0391 35.7893 34.5304 36 34 36C33.4696 36 32.9609 35.7893 32.5858 35.4142C32.2107 35.0391 32 34.5304 32 34V27.14C32 25.604 30.68 23.998 29 23.998C27.952 23.998 26.794 24.568 26 25.924V34C26 34.5304 25.7893 35.0391 25.4142 35.4142C25.0391 35.7893 24.5304 36 24 36C23.4696 36 22.9609 35.7893 22.5858 35.4142C22.2107 35.0391 22 34.5304 22 34V22C22 21.4696 22.2107 20.9609 22.5858 20.5858C22.9609 20.2107 23.4696 20 24 20Z" fill="white"/>
</svg>
