<svg width="172" height="172" viewBox="0 0 172 172" fill="none" xmlns="http://www.w3.org/2000/svg">
<path fill-rule="evenodd" clip-rule="evenodd" d="M14.3333 86C14.3333 46.44 46.44 14.3333 86 14.3333C125.56 14.3333 157.667 46.44 157.667 86C157.667 125.56 125.56 157.667 86 157.667C46.44 157.667 14.3333 125.56 14.3333 86ZM28.6667 86C28.6667 117.605 54.395 143.333 86 143.333C117.605 143.333 143.333 117.605 143.333 86C143.333 54.395 117.605 28.6666 86 28.6666C54.395 28.6666 28.6667 54.395 28.6667 86ZM46.5833 125.417L100.405 100.405L125.417 46.5833L71.595 71.595L46.5833 125.417ZM93.8833 86.0001C93.8833 81.6285 90.3717 78.1168 86 78.1168C81.6283 78.1168 78.1166 81.6285 78.1166 86.0001C78.1166 90.3718 81.6283 93.8835 86 93.8835C90.3717 93.8835 93.8833 90.3718 93.8833 86.0001Z" fill="#193094"/>
</svg>
