<svg width="100" height="100" viewBox="0 0 100 100" fill="none" xmlns="http://www.w3.org/2000/svg">
<path fill-rule="evenodd" clip-rule="evenodd" d="M61.75 16.6667H79.1667C83.75 16.6667 87.5 20.4167 87.5 25V83.3334C87.5 87.9167 83.75 91.6667 79.1667 91.6667H20.8333C20.25 91.6667 19.7083 91.625 19.1667 91.5417C17.5417 91.2084 16.0833 90.375 14.9583 89.25C14.2083 88.4584 13.5833 87.5834 13.1667 86.5834C12.75 85.5834 12.5 84.4584 12.5 83.3334V25C12.5 23.8334 12.75 22.75 13.1667 21.7917C13.5833 20.7917 14.2083 19.875 14.9583 19.125C16.0833 18 17.5417 17.1667 19.1667 16.8334C19.7083 16.7084 20.25 16.6667 20.8333 16.6667H38.25C40 11.8334 44.5833 8.33337 50 8.33337C55.4167 8.33337 60 11.8334 61.75 16.6667ZM29.1667 41.6667V33.3334H70.8333V41.6667H29.1667ZM70.8333 58.3334V50H29.1667V58.3334H70.8333ZM58.3333 66.6667H29.1667V75H58.3333V66.6667ZM50 15.625C51.7083 15.625 53.125 17.0417 53.125 18.75C53.125 20.4584 51.7083 21.875 50 21.875C48.2917 21.875 46.875 20.4584 46.875 18.75C46.875 17.0417 48.2917 15.625 50 15.625ZM20.8333 83.3334H79.1667V25H20.8333V83.3334Z" fill="#193094"/>
</svg>
