<svg width="172" height="172" viewBox="0 0 172 172" fill="none" xmlns="http://www.w3.org/2000/svg">
<path fill-rule="evenodd" clip-rule="evenodd" d="M86 164.833C42.4615 164.833 7.16666 129.538 7.16666 86C7.16666 42.4616 42.4615 7.16667 86 7.16667C129.538 7.16667 164.833 42.4616 164.833 86C164.833 129.538 129.538 164.833 86 164.833ZM139.03 122.727C146.262 112.304 150.5 99.6469 150.5 86C150.5 50.3776 121.622 21.5 86 21.5C50.3776 21.5 21.5 50.3776 21.5 86C21.5 99.6469 25.7382 112.304 32.9703 122.727C41.036 112.073 59.9893 107.5 86 107.5C112.011 107.5 130.964 112.073 139.03 122.727ZM128.747 134.302C126.649 126.759 111.581 121.833 86 121.833C60.4194 121.833 45.3507 126.759 43.2532 134.302C54.6337 144.381 69.6022 150.5 86 150.5C102.398 150.5 117.366 144.381 128.747 134.302ZM86 43C68.6502 43 57.3333 55.5829 57.3333 71.6667C57.3333 96.2295 69.9528 107.5 86 107.5C101.896 107.5 114.667 96.6039 114.667 73.1C114.667 56.7713 103.302 43 86 43ZM71.6667 71.6667C71.6667 87.9297 77.5305 93.1667 86 93.1667C94.4402 93.1667 100.333 88.1385 100.333 73.1C100.333 64.1447 94.7122 57.3333 86 57.3333C76.9251 57.3333 71.6667 63.1801 71.6667 71.6667Z" fill="#193094"/>
</svg>
