<svg width="100" height="100" viewBox="0 0 100 100" fill="none" xmlns="http://www.w3.org/2000/svg">
<path fill-rule="evenodd" clip-rule="evenodd" d="M46.5803 41.7038C39.1074 40.8695 29.4708 44.2023 22.8195 50.8655C14.5143 59.1855 14.7866 69.5249 22.6112 77.3634C30.4357 85.2019 40.7569 85.4747 49.062 77.1548C55.6288 70.5764 58.9551 61.083 58.2372 53.6384C57.9114 50.2596 56.7525 47.3028 54.6854 45.2321C52.6771 43.2201 49.8337 42.0671 46.5803 41.7038ZM63.2545 42.7091L70.8101 35.14L73.6493 37.0244C76.103 38.6529 79.4018 38.3391 81.5127 36.2245C83.9535 33.7793 83.9535 29.815 81.5127 27.3699C80.5399 26.3953 79.3104 25.7882 77.9807 25.5989L74.8821 25.1577L74.4417 22.0536C74.2528 20.7215 73.6467 19.4899 72.6739 18.5153C70.2331 16.0702 66.2758 16.0702 63.835 18.5153C61.7241 20.63 61.4109 23.9347 63.0364 26.3927L64.9175 29.237L57.3973 36.7706C58.5378 37.5043 59.6023 38.3565 60.5755 39.3314C61.6036 40.3613 62.4949 41.4933 63.2545 42.7091ZM48.7945 33.5826L54.515 27.852C52.6659 22.6571 53.8719 16.6901 57.9425 12.6123C63.6376 6.90705 72.8713 6.90705 78.5664 12.6123C80.1187 14.1674 81.2769 16.0199 81.9929 18.0343C84.0038 18.7516 85.853 19.9118 87.4053 21.4669C93.1004 27.1722 93.1004 36.4223 87.4053 42.1276C83.3347 46.2053 77.3784 47.4135 72.1927 45.5611L66.3566 51.4076C67.9113 61.8161 63.5448 74.4345 54.9367 83.0579C43.3081 94.7072 27.7266 94.2953 16.718 83.2671C5.70944 72.239 5.29827 56.6297 16.9268 44.9804C25.6107 36.2811 38.3527 31.9061 48.7945 33.5826Z" fill="#193094"/>
</svg>
