<svg width="172" height="172" viewBox="0 0 172 172" fill="none" xmlns="http://www.w3.org/2000/svg">
<path fill-rule="evenodd" clip-rule="evenodd" d="M7.16666 86C19.565 54.5383 50.1667 32.25 86 32.25C121.833 32.25 152.435 54.5383 164.833 86C152.435 117.462 121.833 139.75 86 139.75C50.1667 139.75 19.565 117.462 7.16666 86ZM149.21 86C137.385 61.8483 113.162 46.5833 86 46.5833C58.8383 46.5833 34.615 61.8483 22.79 86C34.615 110.152 58.7667 125.417 86 125.417C113.233 125.417 137.385 110.152 149.21 86ZM86 68.0833C95.89 68.0833 103.917 76.11 103.917 86C103.917 95.89 95.89 103.917 86 103.917C76.11 103.917 68.0833 95.89 68.0833 86C68.0833 76.11 76.11 68.0833 86 68.0833ZM53.75 86C53.75 68.2267 68.2267 53.75 86 53.75C103.773 53.75 118.25 68.2267 118.25 86C118.25 103.773 103.773 118.25 86 118.25C68.2267 118.25 53.75 103.773 53.75 86Z" fill="#193094"/>
</svg>
